<svg width="316" height="279" viewBox="0 0 316 279" fill="none" xmlns="http://www.w3.org/2000/svg">
<path d="M124.263 105.75L158.007 47.3114L130.732 -1.12789e-05H15.7722C13.3245 0.239867 10.8492 0.922594 8.5671 2.25115C3.06433 5.42493 -0.018322 11.2097 8.19344e-05 17.1605C8.19344e-05 19.7623 0.570604 22.3548 1.80367 24.8366L86.1488 171.79L113.497 124.368H113.515L124.263 105.75Z" fill="#75C044"/>
<path d="M130.728 0.00359805L202.466 124.371H252.911H256.969L314.307 24.4897C315.347 22.3123 316 19.812 316 17.1549C316 8.03954 308.832 0.584843 299.814 0.00359805H130.728Z" fill="#00AE9D"/>
<path d="M252.909 124.371H113.509L86.1423 171.783L143.875 271.49C145.292 273.575 147.114 275.365 149.387 276.693C152.074 278.253 155.01 279 157.936 279C163.531 279 169.015 276.186 172.291 271.204L256.967 124.371H252.909Z" fill="#BFD730"/>
</svg>
