<?xml version="1.0" encoding="UTF-8"?>
<svg width="1085" height="279" viewBox="0 0 1085 279" fill="none" xmlns="http://www.w3.org/2000/svg">
<path d="M124.263 105.75L158.007 47.3114L130.732 -1.52588e-05H15.7722C13.3245 0.239868 10.8492 0.922592 8.5671 2.25116C3.06433 5.42493 -0.018322 11.2097 8.19344e-05 17.1605C8.19344e-05 19.7623 0.570604 22.3548 1.80367 24.8366L86.1488 171.79L113.497 124.368H113.515L124.263 105.75Z" fill="#75C044"/>
<path d="M130.728 0.00360107L202.466 124.371H252.911H256.969L314.307 24.4897C315.347 22.3123 316 19.812 316 17.1549C316 8.03954 308.832 0.584839 299.814 0.00360107H130.728Z" fill="#00AE9D"/>
<path d="M252.909 124.371H113.509L86.1424 171.783L143.875 271.49C145.293 273.575 147.115 275.365 149.387 276.693C152.074 278.253 155.01 279 157.936 279C163.531 279 169.015 276.186 172.291 271.204L256.967 124.371H252.909Z" fill="#BFD730"/>
<path d="M693.08 12.0001H692.319C653.728 12.3835 629.882 41.6597 629.882 78.3902C629.882 113.644 651.585 143.272 691.006 143.272H691.2H692.319C730.703 142.763 754.756 116.83 754.756 76.2973C754.756 42.3763 734.015 12.0001 693.08 12.0001ZM692.709 116.321L692.332 116.277H692.319C675.921 116.277 665.733 100.426 665.922 77.636C665.922 55.5625 675.921 38.9508 692.319 38.9508H692.332C708.95 38.9508 718.742 55.5625 718.742 77.4474C718.742 100.457 709.126 116.321 692.709 116.321ZM828.883 12.0001H828.141C789.538 12.3835 765.692 41.6597 765.692 78.3902C765.692 113.644 787.414 143.272 826.828 143.272H826.991H828.141C866.512 142.763 890.572 116.83 890.572 76.2973C890.572 42.3763 869.837 12.0001 828.883 12.0001ZM828.512 116.321L828.141 116.277C811.731 116.277 801.536 100.457 801.738 77.636C801.738 55.5625 811.731 38.9508 828.141 38.9508C844.747 38.9508 854.552 55.5625 854.552 77.4474C854.552 100.457 844.948 116.321 828.512 116.321ZM976.239 72.5199V72.1616C991.16 66.4987 996.999 56.1093 996.999 45.5628C996.999 33.1308 989.834 24.0802 979.846 19.3537C971.493 15.1867 962.367 13.6091 948.716 13.2257C946.277 13.144 943.726 13.144 940.96 13.144C925.335 13.144 908.541 14.445 900.792 15.9346V140.444C907.592 141.776 918.899 142.719 934.386 142.719C939.546 142.719 944.323 142.568 948.716 142.247C967.345 140.99 979.174 137.169 986.81 131.38C995.308 124.976 1001.13 115.529 1001.13 103.455C1001.13 88.3773 991.725 76.8566 976.239 72.5199ZM934.549 38.4103C936.831 38.0081 940.03 37.6184 945.687 37.6184C946.73 37.6184 947.748 37.7001 948.716 37.7818C958.2 38.5172 962.858 43.0111 962.858 49.6985C962.858 56.3042 958.232 60.9112 948.716 62.4071C946.51 62.7213 944.065 62.9162 941.356 62.9162H934.549V38.4103ZM948.716 117.578C947.289 117.735 945.844 117.811 944.386 117.811C940.03 117.811 937.032 117.811 934.549 117.421V87.0826H942.676C944.781 87.0826 946.793 87.1643 948.716 87.3969C958.433 88.6162 965.321 92.9844 965.321 101.953C965.321 111.79 958.037 116.516 948.716 117.578ZM474.086 14.1245V141.185H508.214V34.8655C508.214 18.92 499.553 14.1245 474.086 14.1245ZM424.471 64.2549C408.425 58.2463 401.637 55.7511 401.637 49.3402C401.637 43.7213 407.306 39.9439 417.689 39.9439C430.316 39.9439 442.893 44.6201 445.212 45.9714C450.014 32.936 452.779 12.2012 418.047 12.2012C385.999 12.2012 366.943 29.5545 366.943 52.0177C366.943 70.8606 381.279 82.5573 402.781 90.2692C417.105 95.1904 422.774 98.6159 422.774 104.826C422.774 111.243 417.105 115.184 405.414 115.184C392.605 115.184 380.142 111.243 372.423 107.271L366 135.365C373.171 139.143 388.067 143.121 403.346 143.121C440.511 143.121 457.481 124.423 457.481 102.544C457.474 84.8388 447.305 72.7524 424.471 64.2549ZM597.445 114.788C574.039 114.788 560.287 100.426 560.287 77.4474C560.287 51.584 577.257 40.0947 596.691 40.0947C606.872 40.0947 617.4 43.0865 620.279 44.6201C626.268 30.887 624.823 12.2012 595.188 12.2012C557.264 12.2012 524.443 34.9786 524.443 79.685C524.443 113.487 545.366 143.071 592.926 143.071C608.023 143.071 620.096 140.242 624.804 137.81L620.096 111.205C614.804 113.285 605.559 114.788 597.445 114.788Z" fill="white"/>
<path d="M290.148 273V183.4H332.516C342.414 183.4 351.118 185.235 358.628 188.904C366.137 192.573 371.982 197.736 376.164 204.392C380.43 211.048 382.564 218.984 382.564 228.2C382.564 237.331 380.43 245.267 376.164 252.008C371.982 258.664 366.137 263.827 358.628 267.496C351.118 271.165 342.414 273 332.516 273H290.148ZM315.492 252.776H331.492C336.612 252.776 341.049 251.837 344.804 249.96C348.644 247.997 351.63 245.181 353.764 241.512C355.897 237.757 356.964 233.32 356.964 228.2C356.964 222.995 355.897 218.557 353.764 214.888C351.63 211.219 348.644 208.445 344.804 206.568C341.049 204.605 336.612 203.624 331.492 203.624H315.492V252.776ZM419.194 218.088H460.794V237.032H419.194V218.088ZM420.986 253.416H467.834V273H395.898V183.4H466.17V202.984H420.986V253.416ZM481.898 273V183.4H502.762L539.882 244.328H528.874L564.97 183.4H585.834L586.09 273H562.794L562.538 218.856H566.506L539.498 264.168H528.234L500.458 218.856H505.322V273H481.898ZM593.27 273L632.823 183.4H657.783L697.463 273H671.095L640.119 195.816H650.103L619.127 273H593.27ZM614.903 255.592L621.431 236.904H665.207L671.735 255.592H614.903ZM704.648 273V183.4H725.512L774.92 243.048H765.064V183.4H789.896V273H769.032L719.624 213.352H729.479V273H704.648ZM807.773 273V183.4H850.141C860.039 183.4 868.743 185.235 876.253 188.904C883.762 192.573 889.607 197.736 893.789 204.392C898.055 211.048 900.189 218.984 900.189 228.2C900.189 237.331 898.055 245.267 893.789 252.008C889.607 258.664 883.762 263.827 876.253 267.496C868.743 271.165 860.039 273 850.141 273H807.773ZM833.117 252.776H849.117C854.237 252.776 858.674 251.837 862.429 249.96C866.269 247.997 869.255 245.181 871.389 241.512C873.522 237.757 874.589 233.32 874.589 228.2C874.589 222.995 873.522 218.557 871.389 214.888C869.255 211.219 866.269 208.445 862.429 206.568C858.674 204.605 854.237 203.624 849.117 203.624H833.117V252.776ZM901.52 273L941.073 183.4H966.033L1005.71 273H979.345L948.369 195.816H958.353L927.377 273H901.52ZM923.153 255.592L929.681 236.904H973.457L979.985 255.592H923.153ZM1044.39 274.792C1037.05 274.792 1029.96 273.896 1023.14 272.104C1016.4 270.227 1010.89 267.837 1006.63 264.936L1014.95 246.248C1018.96 248.808 1023.56 250.941 1028.77 252.648C1034.06 254.269 1039.31 255.08 1044.51 255.08C1048.01 255.08 1050.83 254.781 1052.96 254.184C1055.09 253.501 1056.63 252.648 1057.57 251.624C1058.59 250.515 1059.11 249.235 1059.11 247.784C1059.11 245.736 1058.17 244.115 1056.29 242.92C1054.41 241.725 1051.98 240.744 1048.99 239.976C1046.01 239.208 1042.68 238.44 1039.01 237.672C1035.43 236.904 1031.8 235.923 1028.13 234.728C1024.55 233.533 1021.26 231.997 1018.27 230.12C1015.29 228.157 1012.85 225.64 1010.98 222.568C1009.1 219.411 1008.16 215.443 1008.16 210.664C1008.16 205.288 1009.61 200.424 1012.51 196.072C1015.5 191.72 1019.94 188.221 1025.83 185.576C1031.71 182.931 1039.05 181.608 1047.84 181.608C1053.73 181.608 1059.49 182.291 1065.12 183.656C1070.84 184.936 1075.92 186.856 1080.35 189.416L1072.55 208.232C1068.28 205.928 1064.05 204.221 1059.87 203.112C1055.69 201.917 1051.64 201.32 1047.71 201.32C1044.21 201.32 1041.4 201.704 1039.27 202.472C1037.13 203.155 1035.6 204.093 1034.66 205.288C1033.72 206.483 1033.25 207.848 1033.25 209.384C1033.25 211.347 1034.15 212.925 1035.94 214.12C1037.81 215.229 1040.25 216.168 1043.23 216.936C1046.31 217.619 1049.63 218.344 1053.22 219.112C1056.89 219.88 1060.51 220.861 1064.1 222.056C1067.77 223.165 1071.09 224.701 1074.08 226.664C1077.07 228.541 1079.46 231.059 1081.25 234.216C1083.13 237.288 1084.07 241.171 1084.07 245.864C1084.07 251.069 1082.57 255.891 1079.59 260.328C1076.68 264.68 1072.29 268.179 1066.4 270.824C1060.6 273.469 1053.26 274.792 1044.39 274.792Z" fill="white"/>
</svg>
