<svg width="1085" height="279" viewBox="0 0 1085 279" fill="none" xmlns="http://www.w3.org/2000/svg">
  <!-- Background decorative elements -->
  <circle cx="200" cy="139" r="120" fill="#0057B7" opacity="0.1" />
  <circle cx="800" cy="139" r="100" fill="#0057B7" opacity="0.08" />
  
  <!-- Main logo illustration - scaled and centered -->
  <g transform="translate(400, 80) scale(1.2)">
    <g id="icon">
      <circle cx="40" cy="45" r="30" stroke="#0057B7" stroke-width="6" fill="none" />
      <circle cx="40" cy="40" r="3" fill="#0057B7" />
      <line x1="40" y1="40" x2="51" y2="53" stroke="#0057B7" stroke-width="6" stroke-linecap="round" />
      <line x1="40" y1="41" x2="29" y2="60" stroke="#0057B7" stroke-width="6" stroke-linecap="round" />
    </g>

    <path d="M93 36 
             A 10 10 0 1 0 93 56" 
          stroke="#0057B7" 
          stroke-width="6" 
          fill="none" 
          stroke-linecap="round" />

    <text x="101" y="55" 
          font-family="Montserrat, Arial, sans-serif" 
          font-weight="700" 
          font-size="25" 
          fill="#000">
      rono
    </text>

    <path d="M162 55 
             L167 37 
             L173 48 
             L179 37 
             L184 55" 
          stroke="#0057B7" 
          stroke-width="5" 
          stroke-linecap="round" 
          stroke-linejoin="round"
          fill="none"/>

    <text x="188" y="55" 
          font-family="Montserrat, Arial, sans-serif" 
          font-weight="700" 
          font-size="25" 
          fill="#000">
      etre
    </text>
  </g>
  
  <!-- Decorative clock elements -->
  <circle cx="150" cy="80" r="25" stroke="#0057B7" stroke-width="3" fill="none" opacity="0.3" />
  <circle cx="150" cy="80" r="3" fill="#0057B7" opacity="0.3" />
  <line x1="150" y1="80" x2="150" y2="65" stroke="#0057B7" stroke-width="2" stroke-linecap="round" opacity="0.3" />
  <line x1="150" y1="80" x2="163" y2="80" stroke="#0057B7" stroke-width="2" stroke-linecap="round" opacity="0.3" />
  
  <circle cx="950" cy="200" r="30" stroke="#0057B7" stroke-width="3" fill="none" opacity="0.2" />
  <circle cx="950" cy="200" r="3" fill="#0057B7" opacity="0.2" />
  <line x1="950" y1="200" x2="950" y2="180" stroke="#0057B7" stroke-width="2" stroke-linecap="round" opacity="0.2" />
  <line x1="950" y1="200" x2="970" y2="200" stroke="#0057B7" stroke-width="2" stroke-linecap="round" opacity="0.2" />
</svg>
